<svg width="1308" height="601" viewBox="0 0 1308 601" fill="none" xmlns="http://www.w3.org/2000/svg">
<path d="M362 219C464.225 -104.645 868.547 -36.7103 925 219" stroke="#C0C0C0" stroke-width="2" stroke-linecap="round"/>
<path d="M375 219C476.317 -101.676 877.049 -34.3643 933 219" stroke="#C0C0C0" stroke-width="2" stroke-linecap="round"/>
<path d="M378 220C480.182 -102.304 883.571 -36.6243 940 218.026" stroke="#C0C0C0" stroke-width="2" stroke-linecap="round"/>
<path d="M940 382C837.775 705.645 433.453 637.71 377 382" stroke="#C0C0C0" stroke-width="2" stroke-linecap="round"/>
<path d="M928 382C826.501 704.16 425.052 636.537 369 382" stroke="#C0C0C0" stroke-width="2" stroke-linecap="round"/>
<path d="M925 381C822.636 704.782 418.529 638.801 362 382.983" stroke="#C0C0C0" stroke-width="2" stroke-linecap="round"/>
<path d="M4 357.159C4.14699 335.362 17.9864 327.682 60.4554 319.852C110.119 312.721 167.507 317.749 318.319 342.693C414.382 355.945 458.6 349.377 512.861 313M1304 318.329C1301.41 340.476 1292.43 347.845 1265.09 353.352C1177.36 370.102 1043.08 342.693 1028.59 340.409C1014.09 338.125 874.033 315.18 836.336 336.602C799.82 358.024 745.549 447 705.115 447" stroke="#C0C0C0" stroke-width="8" stroke-linecap="round"/>
<path fill-rule="evenodd" clip-rule="evenodd" d="M528.256 424.829L513.803 321.28L510 307.575C530.584 295.361 537.173 294.361 538.144 302.245L548.033 375.338C552.469 415.157 554.555 422.34 557.921 421.783C563.419 417.42 567.816 409.032 576.938 388.282C571.719 374.906 570.466 370.503 569.331 364.679C564.551 343.844 564.66 332.001 569.331 310.62C577.689 286.911 583.768 277.419 598.236 270.267C607.575 266.915 611.742 269.036 618.013 277.119C622.813 285.151 622.695 293.982 618.013 316.711C604.487 351.178 602.051 358.126 598.236 369.247C606.245 388.948 616.045 382.248 639.311 350.974C650.085 254.505 670.065 219.192 705.488 159.865C707.629 156.28 711.615 151.454 713.856 147.683C738.948 115.758 768.623 102 785.357 102C802.091 102 813.916 111.675 819.587 126.364C828.134 162.375 812.994 186.686 789.664 224.15C787.293 227.957 784.838 231.9 782.314 236.004C745.013 278.582 722.152 299.582 672.78 324.325C666.912 371.465 666.674 391.918 672.78 415.692C683.408 437.586 690.292 443.199 704.728 440.818V453C652.717 444.936 648.19 417.292 640.945 374.268C640.421 371.156 639.883 367.959 639.311 364.679C629.306 377.481 623.338 381.429 611.167 388.282C603.561 392.565 597.486 394.301 583.023 392.85L563.246 427.874C545.54 459.574 538.017 457.904 528.256 424.829ZM676.583 313.666C686.594 265.01 697.493 240.763 717.659 197.935C727.475 180.355 733.413 171.115 745.042 156.058C756.146 142.08 763.031 134.388 776.99 121.035C798.041 110.671 805.017 112.402 810.459 126.364C816.634 137.142 814.587 149.545 806.655 176.616C789.887 217.958 776.847 233.872 751.888 258.846C725.635 283.379 710.158 296.384 676.583 313.666ZM591.39 324.804C590.142 337.543 589.279 346.344 592.151 359.349C602.845 338.522 608.272 325.502 611.928 305.291C614.131 293.108 615.119 282.736 608.885 280.926C603.561 282.449 601.012 288.188 597.475 296.154C594.589 302.655 593.889 306.688 592.4 315.277C592.319 315.742 592.236 316.219 592.151 316.711C591.899 319.606 591.637 322.282 591.39 324.804Z" fill="#C0C0C0"/>
</svg>
